<?xml version="1.0" standalone="no"?>
<!DOCTYPE svg PUBLIC "-//W3C//DTD SVG 20010904//EN"
 "http://www.w3.org/TR/2001/REC-SVG-20010904/DTD/svg10.dtd">
<svg version="1.0" xmlns="http://www.w3.org/2000/svg"
 width="1024.000000pt" height="1024.000000pt" viewBox="0 0 1024.000000 1024.000000"
 preserveAspectRatio="xMidYMid meet">

<g transform="translate(0.000000,1024.000000) scale(0.100000,-0.100000)"
fill="#000000" stroke="none">
<path d="M5625 10114 c-11 -3 -30 -7 -42 -9 -18 -4 -22 -14 -28 -68 -4 -38 -2
-80 4 -105 l12 -42 87 6 c103 8 171 -8 270 -62 l64 -35 -7 33 c-21 104 -109
220 -193 256 -49 21 -132 34 -167 26z"/>
<path d="M5168 10041 c-76 -24 -148 -71 -202 -132 -46 -51 -88 -117 -101 -157
l-7 -23 51 26 c87 44 171 58 309 52 l123 -5 10 25 c10 27 13 192 3 217 -9 22
-112 20 -186 -3z"/>
<path d="M5638 9751 c-67 -22 -118 -52 -175 -104 l-42 -39 -30 22 c-52 36
-156 79 -220 89 -208 34 -366 -97 -440 -366 -11 -40 -22 -77 -26 -83 -3 -5
-29 -10 -57 -10 -28 0 -92 -9 -142 -21 l-91 -21 -150 -151 c-312 -314 -747
-829 -997 -1180 l-70 -97 -18 -228 c-10 -125 -26 -337 -36 -471 l-18 -244 -43
-19 c-56 -25 -179 -48 -254 -48 -132 0 -307 58 -415 138 l-41 30 23 69 c13 37
28 118 35 179 l12 112 61 6 c148 17 278 72 327 138 36 51 53 125 46 207 -12
145 -90 241 -238 292 -53 18 -86 22 -187 22 l-124 0 9 156 c4 86 8 233 8 326
l0 170 -36 75 c-42 88 -122 180 -182 209 -82 40 -176 19 -246 -53 -29 -30 -37
-33 -63 -25 -61 17 -126 -9 -184 -73 -30 -33 -53 -48 -98 -62 -185 -57 -273
-309 -248 -710 8 -116 6 -142 -14 -241 -38 -188 -54 -317 -54 -441 0 -214 38
-314 168 -442 80 -79 85 -87 97 -147 35 -164 125 -246 274 -249 66 -1 69 -3
120 -48 154 -139 415 -263 661 -315 156 -33 466 -21 592 22 8 2 35 -32 66 -83
105 -173 296 -425 478 -632 207 -236 493 -494 599 -541 22 -10 115 -30 208
-45 l167 -28 0 -321 c0 -567 40 -1247 111 -1880 21 -193 76 -616 84 -651 4
-20 0 -22 -68 -27 -74 -5 -205 -34 -220 -47 -5 -4 33 -11 85 -15 51 -3 158
-13 238 -21 318 -33 474 -44 675 -51 179 -5 218 -3 267 11 85 24 226 21 311
-8 37 -12 67 -19 67 -15 0 22 -68 82 -123 110 l-62 30 105 -5 c58 -3 144 -14
193 -24 48 -11 87 -16 87 -13 0 23 -224 121 -278 121 -17 0 -22 13 -37 91 -77
423 -135 1128 -135 1655 0 436 24 755 78 1039 l17 89 107 18 c191 31 644 142
724 178 60 26 175 106 318 220 69 54 153 120 187 145 l63 46 35 -73 c44 -90
142 -192 221 -230 114 -54 167 -63 390 -63 211 1 300 10 418 47 104 32 172
113 172 208 0 20 9 29 45 43 137 57 218 190 181 296 -12 37 -12 47 0 77 21 50
17 104 -12 163 -28 56 -89 108 -136 118 -26 5 -28 9 -28 57 0 58 -27 126 -59
148 -20 14 -17 17 67 74 176 120 299 261 349 404 19 57 27 102 31 185 4 104 3
114 -21 160 -72 141 -296 280 -638 395 l-135 45 17 95 17 95 -40 75 c-98 186
-484 735 -785 1117 -84 107 -124 148 -211 217 -127 99 -282 206 -351 241 -111
56 -670 138 -816 120 l-52 -7 -31 67 c-42 88 -137 185 -206 208 -64 22 -156
21 -228 -2z m198 -62 c96 -29 183 -199 230 -445 20 -108 22 -289 5 -364 -30
-126 -107 -222 -220 -277 -43 -21 -75 -28 -142 -31 -122 -6 -176 13 -252 90
l-59 58 -50 -45 c-27 -24 -81 -60 -119 -79 -220 -110 -362 -49 -436 189 -28
92 -25 377 5 499 31 123 75 210 138 274 71 71 129 96 219 97 88 0 145 -27 217
-103 46 -49 52 -52 61 -36 23 41 99 112 149 139 89 49 169 59 254 34z m565
-349 c126 -10 412 -44 470 -56 21 -4 77 -71 246 -292 408 -534 604 -822 760
-1118 61 -117 65 -129 59 -172 -17 -123 -435 -1502 -505 -1666 -11 -25 -37
-61 -58 -78 -21 -18 -121 -112 -223 -209 -355 -336 -575 -527 -753 -653 l-67
-48 -208 -23 c-532 -60 -980 -89 -1398 -90 l-341 0 -59 45 c-98 73 -481 464
-623 635 -154 185 -310 389 -402 525 l-64 95 1 410 c0 421 8 564 53 924 l19
152 118 157 c395 522 903 1117 1032 1205 38 27 257 96 267 85 4 -3 1 -68 -5
-145 -8 -91 -9 -155 -3 -189 l10 -51 -104 -83 c-372 -295 -770 -710 -955 -995
-44 -67 -46 -74 -57 -180 -26 -257 -33 -393 -38 -806 l-6 -437 160 -213 c307
-411 533 -664 683 -764 l71 -47 257 6 c785 20 1325 57 1477 101 28 9 87 42
135 76 211 153 552 441 721 608 l116 116 76 235 c170 527 307 1048 307 1169 0
65 -208 440 -416 751 -149 223 -272 378 -409 516 -96 97 -127 122 -155 127
-19 3 -129 9 -245 13 l-210 7 0 121 c0 66 -4 149 -8 184 l-8 62 74 0 c40 0
134 -5 208 -10z m820 -274 c107 -93 164 -159 328 -376 254 -336 539 -747 621
-895 l41 -74 -18 -98 -18 -98 -40 -7 c-61 -10 -122 -35 -172 -68 -25 -17 -42
-25 -40 -18 28 68 70 214 74 258 4 49 1 62 -32 125 -161 302 -470 768 -805
1210 -75 99 -140 187 -145 195 -15 24 109 -68 206 -154z m-5136 -265 c51 -24
88 -63 117 -126 22 -47 23 -62 23 -255 0 -113 -4 -281 -9 -373 l-9 -168 -43
-45 c-24 -25 -44 -49 -44 -54 0 -6 -8 -10 -17 -10 -39 0 -95 -23 -127 -51 -34
-29 -102 -126 -95 -134 2 -2 31 16 63 40 69 52 115 69 162 61 19 -4 34 -3 34
2 0 21 124 142 166 162 39 19 57 22 132 17 226 -12 353 -115 340 -273 -4 -50
-10 -62 -40 -89 -46 -43 -121 -69 -248 -89 -145 -23 -217 -43 -270 -74 l-45
-27 89 -3 89 -3 -6 -92 c-7 -118 -35 -195 -94 -259 -58 -61 -114 -82 -215 -83
-72 0 -76 -1 -61 -18 32 -35 128 -45 209 -21 31 8 38 -20 16 -69 -24 -54 -98
-122 -170 -155 -51 -24 -68 -27 -172 -27 -104 0 -121 3 -165 25 -38 19 -55 36
-72 70 -13 24 -23 55 -23 67 0 22 3 23 87 23 47 0 84 2 82 5 -3 2 -45 16 -93
30 -144 42 -220 92 -272 181 -77 131 -89 529 -24 775 16 63 18 97 13 273 -4
161 -2 220 11 296 20 113 57 200 103 240 28 25 54 38 53 28 0 -2 -7 -39 -15
-83 -27 -150 -14 -506 22 -568 4 -9 8 84 9 216 1 247 12 339 54 449 23 63 70
111 104 106 24 -3 24 2 6 -153 -27 -233 21 -624 79 -643 9 -3 11 1 7 14 -18
56 -36 236 -36 356 0 318 92 521 240 527 8 0 33 -8 55 -18z m2460 -875 c166
-44 270 -171 282 -345 3 -43 3 -95 -1 -116 l-7 -37 -147 7 c-81 4 -155 11
-164 16 -10 6 -18 19 -18 31 0 11 -17 38 -39 59 -34 34 -44 39 -87 39 -43 0
-51 -4 -90 -44 -96 -101 -52 -181 120 -221 269 -62 445 -205 508 -410 30 -94
29 -256 -1 -368 -86 -326 -370 -516 -677 -453 -240 48 -392 174 -444 366 -24
87 -11 318 21 381 9 18 1 18 204 -1 182 -18 174 -14 164 -65 -25 -136 63 -294
174 -310 82 -13 157 29 200 109 17 32 22 58 22 121 0 144 -37 182 -274 280
-162 67 -223 101 -290 161 -138 124 -151 299 -38 519 70 137 195 242 334 280
63 17 185 18 248 1z m533 -76 c81 -9 98 -14 131 -41 101 -80 275 -77 409 10
39 25 62 31 130 37 l82 7 0 -130 c0 -72 -3 -144 -6 -161 l-6 -31 -142 -3 -141
-3 2 -30 c1 -16 13 -187 27 -380 14 -192 28 -414 32 -491 8 -167 21 -149 -141
-189 -78 -20 -138 -28 -205 -29 l-95 -1 3 145 c4 216 22 624 36 798 6 84 9
155 7 158 -2 2 -69 4 -148 4 l-143 0 0 43 c0 44 24 194 41 260 5 20 15 37 22
37 7 0 54 -5 105 -10z m2023 -40 c165 -51 271 -206 286 -416 13 -183 -61 -317
-216 -390 -39 -19 -78 -29 -129 -32 l-74 -5 6 -56 c7 -67 24 -336 28 -441 l3
-75 -45 -12 c-49 -12 -209 -17 -259 -7 l-32 7 7 146 c8 192 -20 1003 -42 1174
l-6 47 46 21 c135 59 311 76 427 39z m-817 -244 c131 -65 234 -180 284 -316
86 -238 -21 -690 -198 -830 -70 -55 -103 -64 -240 -64 -106 0 -133 3 -180 22
-213 85 -309 301 -270 608 38 304 177 536 362 605 76 28 151 21 242 -25z
m1528 -729 c30 -29 61 -48 95 -58 l51 -14 -52 -135 -51 -134 -40 -8 c-69 -15
-111 -53 -155 -141 -35 -69 -40 -88 -40 -146 0 -36 4 -73 10 -81 7 -11 -4 -28
-44 -70 -93 -98 -131 -187 -143 -336 l-6 -82 -206 -150 c-267 -193 -415 -291
-473 -314 -25 -9 -100 -31 -165 -48 -65 -17 -127 -34 -138 -37 -11 -3 6 11 38
31 138 84 321 242 688 592 l267 255 71 207 c119 345 246 712 247 712 0 0 21
-19 46 -43z m318 -85 c0 -4 -27 -34 -61 -67 -65 -64 -68 -60 -28 33 17 38 22
42 54 42 19 0 35 -4 35 -8z m-317 -369 c-4 -21 -8 -65 -8 -98 1 -81 24 -119
95 -155 153 -78 288 -80 385 -6 42 32 47 18 15 -43 -49 -98 -156 -147 -297
-138 -139 8 -272 87 -309 182 -37 99 -1 227 79 275 44 27 49 25 40 -17z m741
-177 c40 -17 76 -60 76 -93 0 -13 -7 -37 -15 -52 -13 -26 -20 -29 -82 -33 -37
-3 -88 -13 -113 -21 -24 -9 -46 -14 -49 -12 -4 5 -4 20 2 130 2 38 5 41 57 67
63 32 78 33 124 14z m-827 -203 c96 -73 265 -131 347 -118 57 9 142 49 193 91
l43 36 15 -36 c8 -19 15 -39 15 -44 0 -6 38 3 84 19 125 43 191 48 258 17 31
-15 65 -39 77 -57 23 -32 42 -117 25 -110 -5 2 -38 19 -74 36 -147 73 -325 58
-434 -37 -45 -40 -47 -58 -3 -32 58 36 152 62 225 62 86 0 149 -19 218 -64 94
-63 106 -126 38 -205 -35 -40 -106 -86 -124 -79 -5 2 -20 23 -33 48 -28 54
-92 105 -150 121 -41 11 -181 7 -254 -7 -31 -6 -33 -4 -33 20 0 37 -23 78 -60
110 -47 39 -64 34 -37 -11 17 -30 22 -53 21 -108 0 -38 -4 -83 -8 -99 -6 -25
-5 -28 11 -21 10 4 47 16 83 26 220 64 390 6 415 -140 20 -122 -119 -171 -490
-174 -211 -2 -263 6 -358 56 -168 88 -257 317 -197 509 22 70 116 228 136 228
2 0 25 -16 51 -37z m-2170 -1220 c-25 -266 -30 -405 -31 -758 0 -391 9 -611
40 -945 36 -390 100 -820 159 -1058 19 -80 29 -135 23 -138 -20 -13 -611 -9
-672 4 -33 6 -60 13 -62 14 -1 2 -21 111 -43 243 -90 534 -144 1041 -171 1600
-11 237 -13 802 -3 973 l6 112 246 1 c135 1 291 5 346 9 55 3 115 7 134 8 l34
2 -6 -67z m318 35 c-15 -67 -46 -448 -55 -692 -24 -621 40 -1450 156 -2020 13
-65 24 -122 24 -127 0 -4 -37 -22 -81 -39 -94 -36 -89 -39 -119 60 -133 439
-230 1241 -230 1895 0 351 26 664 73 874 l12 55 65 -2 c36 -2 79 2 95 7 52 16
66 14 60 -11z"/>
<path d="M5114 9191 c-91 -41 -139 -142 -132 -275 3 -66 10 -91 34 -135 40
-74 90 -113 154 -119 72 -7 118 25 162 115 30 61 33 76 33 158 0 78 -4 98 -29
152 -30 66 -56 98 -56 70 0 -17 -22 -28 -37 -19 -11 7 -28 52 -25 65 4 14 -63
6 -104 -12z"/>
<path d="M5582 9193 c-130 -64 -164 -320 -62 -461 69 -96 162 -97 243 -2 61
71 84 210 53 314 -18 60 -67 137 -74 116 -13 -40 -43 -32 -62 15 -16 40 -43
45 -98 18z"/>
<path d="M6970 7370 c0 -66 2 -120 5 -120 2 0 26 5 53 11 71 15 97 46 97 114
0 46 -4 58 -29 84 -25 26 -37 31 -78 31 l-48 0 0 -120z"/>
<path d="M6100 7182 c-72 -36 -110 -133 -110 -281 1 -146 36 -206 128 -218 75
-10 126 64 157 232 10 52 15 110 12 137 -15 125 -92 178 -187 130z"/>
</g>
</svg>
